<?xml version="1.0" encoding="utf-8"?>
<!-- Generator: Adobe Illustrator 18.0.0, SVG Export Plug-In . SVG Version: 6.00 Build 0)  -->
<!DOCTYPE svg PUBLIC "-//W3C//DTD SVG 1.1//EN" "http://www.w3.org/Graphics/SVG/1.1/DTD/svg11.dtd">
<svg version="1.1" id="Layer_1" xmlns="http://www.w3.org/2000/svg" xmlns:xlink="http://www.w3.org/1999/xlink" x="0px" y="0px"
	 width="75.1px" height="23px" viewBox="0 0 75.1 23" enable-background="new 0 0 75.1 23" xml:space="preserve">
<path fill="#CA3942" d="M64.3,16c0.9-0.7,10.8-0.6,10.8-5.4c0-3.4-4-3.9-6.6-3.9c-5.1,0-10,2.6-10,8.3c0,1.6,0.6,4,2.2,5.5
	c-0.3,0.1-0.6,0.2-1,0.2c-3.3,0-5.3-5.8-7.6-8.1l5.8-6.1h-6.2C52.2,7,53,7.6,53,8.1c0,0.6-4.3,4.9-5.3,5.9L47.6,0.9h-7
	c0.5,0.3,1.5,1.2,1.6,1.6v19.9h5.4v-5.7c0-0.4,0.7-0.9,1.1-1.1c2.8,4.2,3.6,7.1,8.1,7.1c0.4,0,2-0.3,3-0.5c0.6-0.1,1.8-0.7,2.2-0.7
	c0.3,0,1.2,0.6,1.9,0.7c0.9,0.3,2.9,0.5,3.2,0.5c2.7,0,6.4-0.9,8-4.5c-1.5,1.4-4.6,2.4-6.2,2.4C66.1,20.6,64.7,18.5,64.3,16z
	 M67.3,7.7c1.9,0,2.4,2.5,2.4,3.4c0,2.8-2.8,3-5.4,3.5c-0.1-0.2-0.1-0.6-0.1-0.8C64.2,13.1,64.6,7.7,67.3,7.7z M31.2,6.8
	c-4.6,0-9.9,2-9.9,7.9c0,0.3,0.1,1.3,0,1.9c-2,2.9-4.7,4.6-7.4,4.6c-6.7,0-7.6-6.4-7.6-9.8c0-2.9,0.7-10.2,7-10.2
	c3.1,0,5.8,2,7.6,5.8l0.4-5.9C18.5,0.9,16,0,13.1,0C7.2,0,1.4,2.9,0,10.4v2.9c0,0.3,0.1,0.8,0.1,1c0,3.1,4.6,8.1,9.5,8.5
	c0.9,0.1,2.3,0.2,2.7,0.2c3.7,0,6.2-0.4,9.9-4.6c1.6,3.4,5.7,4.5,8.5,4.5c5,0,10-2.5,10-8.2C40.7,9.6,36.9,6.8,31.2,6.8z M34.6,14.9
	c0,1.7,0,6.9-3.6,6.9c-3.1,0-3.5-4.4-3.5-5.6v-3.6c0.1-1.7,0.8-4.7,3.7-4.7C34.7,7.9,34.6,13.6,34.6,14.9z"/>
</svg>
