<?xml version="1.0" encoding="utf-8"?>
<!-- Generator: Adobe Illustrator 18.0.0, SVG Export Plug-In . SVG Version: 6.00 Build 0)  -->
<!DOCTYPE svg PUBLIC "-//W3C//DTD SVG 1.1//EN" "http://www.w3.org/Graphics/SVG/1.1/DTD/svg11.dtd">
<svg version="1.1" id="Layer_1" xmlns="http://www.w3.org/2000/svg" xmlns:xlink="http://www.w3.org/1999/xlink" x="0px" y="0px"
	 width="115.1px" height="115.1px" viewBox="0 0 115.1 115.1" enable-background="new 0 0 115.1 115.1" xml:space="preserve">
<g>
	<path fill="#FED130" d="M111,36.2c6.3,15.7,5.5,34.3-3.6,50.1c-12.1,21-35.5,31.5-58.1,28.2L76,68.2C81.8,58,78.3,45,68.2,39.1
		c-3.3-2-7-3-10.6-3H111V36.2z"/>
	<path fill="#E64A45" d="M111,36.2H57.6c-7.3,0-14.5,3.9-18.4,10.8c-3.8,6.6-3.7,14.6-0.2,20.9l-26.6-46C29.8-0.2,61.2-6.8,86.3,7.7
		C98,14.4,106.4,24.6,111,36.2z"/>
	<path fill="#51B84E" d="M76,68.3l-26.7,46.3c-7-1-13.9-3.4-20.4-7.1C1.3,91.5-8.2,56.4,7.7,28.9c1.4-2.5,3-4.7,4.7-6.9l26.5,45.9
		l0.2,0.4c1.8,3.1,4.4,5.9,7.8,7.8C57.1,81.9,70.1,78.4,76,68.3z"/>
	<g>
		<path fill="#4793C6" d="M70.1,35.5c12.2,7,16.4,22.7,9.4,34.9c-7.1,12.2-22.7,16.4-34.9,9.3c-4-2.3-7.2-5.6-9.4-9.3l-0.3-0.5
			c-4.2-7.6-4.4-17.1,0.3-25.1C39.9,36.7,48.5,32,57.4,32C61.7,32,66.1,33.1,70.1,35.5z"/>
		<path fill="#FFFFFF" d="M57.3,85.1c-4.8,0-9.5-1.3-13.7-3.7c-4.2-2.4-7.7-5.9-10.1-10.1l-0.3-0.4c-4.6-8.5-4.5-18.8,0.3-27
			c4.9-8.5,14-13.8,23.8-13.8c4.9,0,9.6,1.3,13.7,3.7c6.4,3.7,10.9,9.6,12.8,16.7s0.9,14.5-2.7,20.9C76.3,79.9,67.1,85.1,57.3,85.1z
			 M57.4,34c-8.4,0-16.3,4.5-20.5,11.9c-4.1,7.1-4.2,16-0.2,23.2l0.2,0.4c2.1,3.6,5.1,6.6,8.7,8.6c3.6,2.1,7.7,3.2,11.8,3.2
			c8.4,0,16.3-4.5,20.5-11.8c3.2-5.5,4-11.8,2.4-17.9s-5.5-11.2-11-14.3C65.6,35.1,61.5,34,57.4,34z"/>
	</g>
</g>
</svg>
