<?xml version="1.0" encoding="utf-8"?>
<!-- Generator: Adobe Illustrator 18.0.0, SVG Export Plug-In . SVG Version: 6.00 Build 0)  -->
<!DOCTYPE svg PUBLIC "-//W3C//DTD SVG 1.1//EN" "http://www.w3.org/Graphics/SVG/1.1/DTD/svg11.dtd">
<svg version="1.1" id="Layer_1" xmlns="http://www.w3.org/2000/svg" xmlns:xlink="http://www.w3.org/1999/xlink" x="0px" y="0px"
	 width="115.1px" height="115.4px" viewBox="0 0 115.1 115.4" enable-background="new 0 0 115.1 115.4" xml:space="preserve">
<circle fill="#1899DC" cx="57.6" cy="57.7" r="54.9"/>
<g>
	<path fill="#ED6236" d="M114.4,42.9c-0.8,2.9-0.9,3.9-1.4,4.7c0-0.1,0-3.3-1-7.7c-0.5-3.4-1.3-6.6-2.3-9.5c0.2,1.3,0.4,2.4,0.5,3.4
		c-0.8-2.1-1.8-4.3-3.1-6.5c-0.3-1-1.3-4.1-5.1-9.1c0,0,0.9,1.4,1.2,3.7C97,14.7,77.5,5.3,61,5.5c0,0,23,6,27.2,12.3
		c0,0-4.9-2.8-10.7-2c4.3,1.7,6.5,4.6,9.5,6.5c2.6,1.6,5.2,3.6,7.3,6c-0.8-0.3-1.7-0.7-2.8-1.1c0.3,0.1,2.1,0.8,3.8,2.3
		c2.2,2.8,3.5,6.1,3.3,9.9c-1.2-1.8-2-3.1-4.4-5.1c2.4,9.5,1.9,24.1-0.1,30.3c-0.6-3.7-1.3-5.5-2.4-6.4c1.5,12.7-1.3,15.8-7,21.9
		c1.1-3.7,1.5-6.8,1.3-9.2C79.2,80.9,71.6,86.1,63,86.4c-3.4,0-6.6-0.5-9.6-1.5l0,0c-4.4-1.5-8.4-4-12-7.6
		c5.6,0.5,10.6-0.5,15.1-2.8l7.3-4.7c0.9-0.4,4-4.3,0.7-6c-3.7-1.9-7.5-1.6-11.5,0.9c-3.8,2.1-7.4,2.1-11-0.2
		c-2.3-1.6-4.6-3.7-6.7-6.4l-0.9-1.3c-1-2.8,1-4.1,3.1-4.4c0,0,3.9-0.7,8.5,1.7c0.7-4.7-0.4-7.6-1.8-9.5c2.8-2.6,5.3-4.5,7.5-5.7
		c0.9-0.5,1.4-1.2,1.7-2.1c0.6-0.2,1-0.8,1-1.4c0,0,0,0,0,0c0,0,0,0,0,0c0-0.4-0.2-0.7-0.4-1c-0.3-0.3-0.7-0.5-1.1-0.5
		c-0.4,0-0.7,0.1-1,0.4c-1.6,0-3.2-0.1-4.8-0.5c-0.8-0.2-1.9-0.9-3.2-2.1l-3.3-3.3l-1.1-0.8c0-0.1,0.1-0.3,0.1-0.4
		c0.5-2.5,1.2-4.6,2.3-6.4l0.2-0.2c1.1-1.8,3.2-3.7,6.2-5.8c-5.7,0.7-10.8,3.3-15.4,7.6c-3.8-1.4-8.3-1.1-13.5,0.9
		c-3.3-1.5-2.9-5.8-3.9-12.7c-4.1,4.1-8.7,11.3-8.5,21.8c0,0-3.8,5.8-4.2,6.6c-1.7,3.1-2.2,5-2.3,7.2c0,0,0,0.6,0,0.6
		c0,0.5,0.1,0.9,0.2,1.3c0,0,1.8-2.4,3.4-2.7c-0.3,0.2-2,6.3-2.4,9.8C0.2,66.4,3.3,77.6,11,88.6c11.5,14.8,25.9,22.8,43.2,23.8
		c17.3,1,32.1-5.4,44.3-19.1c8.3-10.1,13.3-20.7,15.2-31.8C115.7,53.9,115.9,48.4,114.4,42.9z"/>
</g>
</svg>
