<?xml version="1.0" encoding="utf-8"?>
<!-- Generator: Adobe Illustrator 18.0.0, SVG Export Plug-In . SVG Version: 6.00 Build 0)  -->
<!DOCTYPE svg PUBLIC "-//W3C//DTD SVG 1.1//EN" "http://www.w3.org/Graphics/SVG/1.1/DTD/svg11.dtd">
<svg version="1.1" id="Layer_1" xmlns="http://www.w3.org/2000/svg" xmlns:xlink="http://www.w3.org/1999/xlink" x="0px" y="0px"
	 width="115.1px" height="123.4px" viewBox="0 0 115.1 123.4" enable-background="new 0 0 115.1 123.4" xml:space="preserve">
<g>
	<g>
		<circle fill="#78BEDD" cx="57.6" cy="65.8" r="51.1"/>
		<path fill="#EDEDED" d="M57.6,14.7c25.6,0,47.6,19.1,50.7,45.2c3.3,28-16.8,53.4-44.8,56.7c-2,0.2-4,0.4-6,0.4
			c-25.6,0-47.6-19.1-50.7-45.2c-3.3-28,16.8-53.4,44.8-56.7C53.6,14.8,55.6,14.7,57.6,14.7 M57.6,8.3v6.4V8.3
			c-2.2,0-4.5,0.1-6.8,0.4c-15.3,1.8-28.9,9.4-38.5,21.5C2.9,42.2-1.4,57.2,0.4,72.5c3.4,29,27.9,50.9,57.1,50.9
			c2.2,0,4.5-0.1,6.8-0.4c15.3-1.8,28.9-9.4,38.5-21.5c9.5-12.1,13.8-27.1,12-42.4C111.3,30.1,86.8,8.3,57.6,8.3L57.6,8.3z"/>
	</g>
	<path fill="#FFFFFF" d="M68.7,71c0.3-0.8,0.6-1.7,0.8-2.6l9.8-6.2l-11.5-2.3C66,57,63,55,59.7,54.4l-6.2-9.8l-2.3,11.5
		c-0.8,0.5-1.4,1-2.1,1.6l-6.7-2l4.3,5.4c-0.5,1-0.8,2-1,3L36,70.3l11.4,2.3c1.8,2.9,4.8,4.9,8.1,5.5l6.2,9.8L64,76.4
		c0.9-0.6,1.7-1.2,2.4-2l6.7,2L68.7,71z M59.7,77.5c-6.2,1.2-12.2-2.9-13.4-9.1c-1.2-6.2,2.9-12.2,9.1-13.4
		c6.2-1.2,12.2,2.9,13.4,9.1C70,70.3,65.9,76.3,59.7,77.5z"/>
	
		<linearGradient id="SVGID_1_" gradientUnits="userSpaceOnUse" x1="144.0953" y1="-121.9523" x2="135.8536" y2="-130.194" gradientTransform="matrix(0.999 -4.560000e-02 4.560000e-02 0.999 -65.3028 185.6586)">
		<stop  offset="1" style="stop-color:#EE4036"/>
		<stop  offset="1" style="stop-color:#F05A28"/>
	</linearGradient>
	<polygon fill="url(#SVGID_1_)" points="53.2,61.8 79.6,40.5 61.8,69.7 	"/>
	<linearGradient id="SVGID_2_" gradientUnits="userSpaceOnUse" x1="43.7491" y1="72.1106" x2="52.3579" y2="79.9688">
		<stop  offset="1" style="stop-color:#F2F2F2"/>
		<stop  offset="1" style="stop-color:#CCCCCC"/>
	</linearGradient>
	<path fill="url(#SVGID_2_)" d="M63.1,65.8c0-3.2-2.6-5.8-5.8-5.8c-1.6,0-3.1,0.7-4.2,1.8L35.3,91l26.5-21.3
		C62.7,68.6,63.1,67.3,63.1,65.8z"/>
	<circle fill="#78BEDD" cx="57.6" cy="65.8" r="2.5"/>
	<g>
		<path fill="#C1C4C6" d="M48.9,8.7c-2.5,0-4.5-1.5-4.8-3.6c-0.2-1.2,0.2-2.3,1.1-3.3c0.8-0.9,2-1.5,3.3-1.7C48.8,0,49.1,0,49.3,0
			c2.5,0,4.5,1.5,4.8,3.6c0.3,2.4-1.6,4.6-4.4,5C49.4,8.6,49.2,8.7,48.9,8.7z M49.3,1.1c-0.2,0-0.5,0-0.7,0.1
			c-1.1,0.2-2,0.6-2.7,1.4c-0.6,0.7-0.9,1.6-0.8,2.4c0.2,1.5,1.8,2.7,3.7,2.7c0.2,0,0.5,0,0.7-0.1c2.2-0.3,3.7-2,3.5-3.8
			C52.8,2.2,51.3,1.1,49.3,1.1z"/>
		<path fill="#C1C4C6" d="M47.1,11l-0.3-1.8c-0.2-1.6,0.9-3.2,2.5-3.4l0,0c1.6-0.2,3.2,0.9,3.4,2.5l0.3,1.8
			C53.2,11.8,47.3,12.7,47.1,11z"/>
	</g>
</g>
</svg>
